<?xml version="1.0" standalone="no"?>
<!DOCTYPE svg PUBLIC "-//W3C//DTD SVG 20010904//EN"
 "http://www.w3.org/TR/2001/REC-SVG-20010904/DTD/svg10.dtd">
<svg version="1.0" xmlns="http://www.w3.org/2000/svg"
 width="437.000000pt" height="422.000000pt" viewBox="0 0 437.000000 422.000000"
 preserveAspectRatio="xMidYMid meet">
<metadata>
Created by potrace 1.16, written by Peter Selinger 2001-2019
</metadata>
<g transform="translate(0.000000,422.000000) scale(0.100000,-0.100000)"
fill="#000000" stroke="none">
<path d="M2094 4110 c-30 -12 -32 -16 -53 -117 -30 -140 -67 -255 -88 -272
-29 -24 -43 -66 -43 -126 0 -31 -5 -55 -10 -55 -6 0 -9 13 -8 29 2 22 -5 35
-25 51 -31 24 -36 67 -13 103 12 19 12 29 -3 77 -32 104 -109 107 -142 6 -16
-48 -16 -51 7 -102 20 -45 21 -54 9 -64 -8 -7 -15 -18 -15 -25 0 -7 -20 -34
-45 -59 -25 -26 -45 -53 -45 -60 0 -7 -12 -31 -28 -52 -15 -21 -40 -65 -55
-97 -22 -46 -26 -64 -19 -85 7 -23 15 -27 45 -27 42 0 45 -8 21 -63 -11 -26
-17 -80 -21 -182 -2 -80 -6 -150 -8 -157 -2 -6 -46 -21 -97 -33 -51 -12 -145
-39 -208 -60 -113 -38 -336 -132 -352 -148 -5 -5 24 0 64 10 218 57 563 118
587 104 4 -3 11 -70 14 -148 4 -79 11 -170 17 -203 12 -72 12 -315 -1 -315 -5
0 -9 -4 -9 -10 0 -17 56 -11 82 9 13 11 33 21 43 23 36 6 45 77 27 208 -14 98
-16 244 -3 236 11 -7 79 -209 146 -432 2 -7 -3 -21 -11 -33 -14 -20 -14 -21
14 -21 56 0 87 18 110 66 12 24 22 52 22 61 0 9 2 14 5 11 14 -14 19 -64 19
-190 1 -75 3 -138 6 -140 3 -2 14 -11 26 -21 31 -25 50 -13 53 34 2 45 -26
176 -43 198 -14 18 -12 219 3 234 6 6 11 39 11 74 l0 63 99 0 c107 0 114 -3
126 -57 8 -39 56 -135 76 -153 5 -4 24 -41 67 -123 8 -17 11 -39 7 -55 -17
-71 -17 -80 3 -100 12 -12 26 -38 32 -59 16 -59 32 -73 89 -80 28 -3 51 -2 51
3 0 5 -16 20 -34 34 -22 16 -36 36 -39 55 -8 50 -28 119 -36 130 -5 5 -17 38
-27 72 -10 34 -21 60 -24 58 -3 -2 -6 9 -7 23 -2 38 -28 156 -38 172 -4 6 -9
65 -11 129 -2 64 -6 130 -8 146 -3 17 -8 56 -12 88 l-7 58 34 -3 34 -3 3 -60
c2 -32 8 -65 14 -72 6 -7 11 -57 12 -111 1 -66 7 -107 17 -127 9 -16 24 -59
33 -93 16 -58 16 -65 2 -81 -17 -19 -22 -66 -7 -75 4 -3 12 -20 16 -38 4 -18
9 -27 12 -20 6 17 23 15 23 -2 0 -26 27 -42 74 -45 55 -2 72 5 56 24 -7 8 -9
22 -6 33 4 13 -3 25 -23 40 -29 21 -30 25 -47 141 -4 24 -1 109 6 188 l13 144
38 20 c37 18 39 22 39 66 l0 46 38 -6 c20 -4 71 -11 112 -17 197 -27 517 -95
553 -117 7 -4 7 0 -2 10 -7 9 -17 17 -22 17 -5 0 -32 11 -61 24 -170 78 -339
136 -503 171 -44 10 -86 19 -92 21 -8 2 -13 22 -13 51 0 26 -3 86 -7 132 -5
63 -3 82 5 77 16 -10 15 11 -3 70 -20 67 -19 89 8 107 41 27 77 70 77 92 0 27
-24 76 -48 98 -10 10 -29 41 -41 70 -44 99 -54 117 -71 117 -10 0 -29 10 -44
21 -26 21 -27 22 -9 41 25 27 24 130 -1 178 -45 86 -103 113 -145 68 -29 -31
-51 -116 -54 -206 l-2 -77 -57 34 c-54 32 -58 37 -59 73 -2 40 -2 44 -12 68
-3 8 -8 53 -11 100 -3 49 -12 99 -21 118 -27 53 -93 76 -151 52z m345 -520 c0
-30 -12 -11 -23 35 -7 29 -7 29 8 10 8 -11 15 -31 15 -45z m8 -62 c-3 -8 -6
-5 -6 6 -1 11 2 17 5 13 3 -3 4 -12 1 -19z m23 -60 c0 -25 -3 -29 -10 -18 -13
20 -13 50 0 50 6 0 10 -15 10 -32z m-510 -138 c11 -22 25 -40 30 -40 18 0 11
-37 -20 -104 -39 -89 -54 -141 -46 -162 10 -26 13 -184 4 -184 -5 0 -8 9 -8
19 0 16 -5 18 -40 14 l-40 -6 0 119 c0 79 -5 141 -17 185 l-17 66 52 105 c29
58 52 111 53 119 0 8 7 -10 14 -38 8 -29 24 -71 35 -93z m526 -65 c-3 -22 -17
-63 -32 -90 -23 -43 -27 -62 -28 -135 -1 -47 3 -102 7 -122 l8 -38 -35 0 c-40
0 -49 16 -45 83 3 63 -12 216 -22 223 -5 3 -9 27 -9 55 l0 49 36 0 c57 0 102
32 105 75 0 11 5 2 11 -20 5 -22 7 -58 4 -80z m-99 -467 c-2 -13 -4 -5 -4 17
-1 22 1 32 4 23 2 -10 2 -28 0 -40z m-441 -30 c-7 -34 -33 -177 -41 -223 -3
-22 -8 -48 -11 -57 -4 -15 16 -29 40 -27 17 1 31 -36 37 -101 4 -36 9 -77 12
-93 6 -39 -5 -41 -42 -5 -46 45 -62 81 -72 162 -11 87 -35 186 -54 223 -18 34
-19 82 -2 88 11 5 67 13 95 14 6 1 12 10 12 21 0 11 7 20 15 20 11 0 14 -7 11
-22z m54 -585 c0 -7 -4 -13 -10 -13 -5 0 -10 12 -10 28 0 21 2 24 10 12 5 -8
10 -21 10 -27z"/>
<path d="M1858 1414 c-64 -20 -88 -52 -88 -121 0 -47 4 -59 30 -84 l30 -30
-40 -38 c-34 -33 -40 -44 -40 -80 0 -55 23 -102 59 -124 83 -49 205 -41 270
18 34 32 36 37 36 95 0 60 -1 64 -39 96 l-39 34 26 20 c52 41 56 141 8 184
-21 19 -105 46 -141 45 -14 0 -46 -7 -72 -15z m162 -29 c64 -33 76 -117 24
-166 -23 -21 -35 -24 -109 -24 -74 0 -86 3 -108 23 -14 13 -28 35 -32 49 -9
39 13 92 49 114 39 24 134 26 176 4z m10 -240 c56 -29 76 -90 48 -150 -39 -86
-247 -86 -286 0 -16 34 -15 96 2 117 7 10 26 24 42 33 38 20 156 20 194 0z"/>
<path d="M2227 1423 c-4 -3 -7 -120 -7 -259 0 -220 2 -253 16 -258 26 -10 202
-7 249 5 66 17 98 56 103 129 4 57 3 61 -31 95 -19 19 -42 35 -51 35 -9 0 -16
5 -16 10 0 6 6 10 13 10 24 0 75 59 79 92 6 41 -7 91 -30 110 -9 8 -36 20 -58
26 -44 13 -256 17 -267 5z m284 -46 c30 -20 34 -29 37 -70 3 -43 0 -51 -28
-77 -17 -16 -44 -31 -60 -34 -17 -3 -43 -9 -60 -12 -46 -9 -36 -24 15 -24 53
0 119 -30 136 -61 15 -29 6 -105 -16 -129 -28 -31 -81 -42 -185 -38 l-95 3 -3
220 c-1 121 0 225 2 232 4 9 35 13 114 13 97 0 113 -3 143 -23z"/>
<path d="M530 430 c-7 -14 -7 -20 0 -20 5 0 10 4 10 10 0 5 7 7 15 4 8 -4 15
-11 15 -16 0 -5 13 -38 29 -73 47 -100 47 -100 -32 -103 -91 -4 -77 -22 18
-22 l73 0 23 -55 c12 -30 26 -55 31 -55 14 0 9 16 -50 141 -33 68 -67 143 -77
167 -21 46 -38 53 -55 22z"/>
<path d="M780 275 c0 -110 4 -175 10 -175 6 0 10 65 10 175 0 110 -4 175 -10
175 -6 0 -10 -65 -10 -175z"/>
<path d="M1610 440 c-3 -8 -3 -89 0 -180 5 -134 6 -146 8 -63 2 90 4 104 22
116 21 14 21 14 1 20 -17 4 -20 15 -23 63 -2 33 -5 52 -8 44z"/>
<path d="M1910 439 c0 -5 5 -7 10 -4 6 3 10 8 10 11 0 2 -4 4 -10 4 -5 0 -10
-5 -10 -11z"/>
<path d="M2140 275 c0 -110 4 -175 10 -175 6 0 10 42 10 105 0 88 3 106 18
114 16 10 16 10 0 11 -15 0 -18 10 -18 60 0 33 -4 60 -10 60 -6 0 -10 -65 -10
-175z"/>
<path d="M2730 440 c0 -5 5 -10 10 -10 6 0 10 5 10 10 0 6 -4 10 -10 10 -5 0
-10 -4 -10 -10z"/>
<path d="M2960 275 c0 -110 4 -175 10 -175 6 0 10 42 10 105 0 88 3 106 18
114 16 10 16 10 0 11 -15 0 -18 10 -18 60 0 33 -4 60 -10 60 -6 0 -10 -65 -10
-175z"/>
<path d="M501 368 c-8 -18 -31 -71 -53 -118 -22 -47 -44 -96 -51 -110 -6 -14
-13 -28 -15 -32 -2 -5 1 -8 6 -8 5 0 20 24 32 53 23 54 60 137 86 195 9 18 14
37 12 43 -2 5 -9 -6 -17 -23z"/>
<path d="M918 354 c-38 -11 -15 -19 46 -16 55 3 67 1 92 -21 25 -22 27 -28 17
-49 -10 -23 -16 -25 -61 -20 -100 9 -162 -40 -130 -104 18 -37 79 -58 126 -43
18 6 44 9 58 6 l24 -4 0 102 c0 129 -10 145 -97 150 -32 2 -66 2 -75 -1z m156
-140 c19 -49 -4 -86 -61 -98 -85 -19 -146 32 -109 89 15 23 23 25 90 25 58 0
75 -3 80 -16z"/>
<path d="M1234 351 c-43 -19 -64 -59 -64 -125 0 -101 48 -143 152 -132 52 5
58 4 58 -13 0 -10 -9 -29 -19 -42 -17 -21 -28 -24 -90 -24 -39 0 -71 -3 -71
-7 0 -5 33 -8 73 -8 89 0 117 19 118 78 1 105 -3 267 -7 271 -9 10 -129 11
-150 2z m130 -17 c13 -5 16 -24 16 -105 0 -113 0 -113 -100 -107 -43 2 -56 8
-72 28 -42 57 -31 147 21 175 27 15 107 20 135 9z"/>
<path d="M1910 230 c0 -80 4 -130 10 -130 6 0 10 50 10 130 0 80 -4 130 -10
130 -6 0 -10 -50 -10 -130z"/>
<path d="M2467 354 c-9 -3 -15 -9 -12 -14 3 -5 11 -7 18 -5 60 23 143 1 153
-40 11 -43 3 -49 -78 -49 -89 -1 -118 -19 -118 -71 0 -61 59 -93 136 -74 24 6
53 9 64 6 19 -5 19 0 17 99 -3 129 -14 146 -104 150 -32 2 -66 0 -76 -2z m161
-167 c4 -50 -9 -64 -68 -72 -67 -9 -104 9 -108 53 -5 49 18 62 103 59 l70 -2
3 -38z"/>
<path d="M2730 230 c0 -80 4 -130 10 -130 6 0 10 50 10 130 0 80 -4 130 -10
130 -6 0 -10 -50 -10 -130z"/>
<path d="M3264 258 c3 -118 8 -133 47 -154 26 -13 35 -13 87 3 31 9 63 16 70
15 9 -2 12 27 12 118 0 73 -4 120 -10 120 -6 0 -10 -41 -10 -104 0 -101 -1
-104 -26 -121 -15 -9 -45 -17 -72 -17 -71 0 -82 20 -82 143 0 54 -4 99 -9 99
-5 0 -8 -45 -7 -102z"/>
<path d="M3573 225 c1 -95 2 -109 4 -45 2 52 5 105 8 117 9 38 109 58 139 27
12 -12 16 -38 16 -114 0 -55 4 -102 10 -105 6 -4 10 31 10 99 l0 105 30 16
c36 19 80 19 106 1 16 -12 19 -29 22 -120 4 -125 22 -144 22 -23 0 96 -14 153
-40 167 -27 14 -70 12 -104 -5 -36 -19 -50 -19 -66 0 -16 19 -67 19 -104 0
-36 -19 -44 -19 -49 3 -3 9 -4 -46 -4 -123z"/>
<path d="M1675 340 c-8 -13 5 -13 25 0 13 8 13 10 -2 10 -9 0 -20 -4 -23 -10z"/>
<path d="M1768 335 c17 -8 33 -18 33 -23 1 -4 5 -54 9 -112 l7 -105 1 100 c2
118 -9 149 -53 152 l-30 2 33 -14z"/>
<path d="M2210 340 c0 -5 7 -7 15 -4 8 4 15 8 15 10 0 2 -7 4 -15 4 -8 0 -15
-4 -15 -10z"/>
<path d="M2296 336 c17 -8 34 -21 38 -31 3 -9 6 -62 6 -116 0 -63 4 -98 10
-94 5 3 9 50 7 109 -2 115 -16 146 -66 146 -26 -1 -26 -1 5 -14z"/>
<path d="M3030 340 c0 -5 7 -7 15 -4 8 4 15 8 15 10 0 2 -7 4 -15 4 -8 0 -15
-4 -15 -10z"/>
<path d="M3115 339 c39 -23 45 -40 45 -141 0 -59 4 -98 10 -98 6 0 10 36 10
88 0 103 -20 155 -60 160 -23 2 -24 2 -5 -9z"/>
</g>
</svg>
