<?xml version="1.0" standalone="no"?>
<!DOCTYPE svg PUBLIC "-//W3C//DTD SVG 20010904//EN"
 "http://www.w3.org/TR/2001/REC-SVG-20010904/DTD/svg10.dtd">
<svg version="1.0" xmlns="http://www.w3.org/2000/svg"
 width="225.000000pt" height="225.000000pt" viewBox="0 0 225.000000 225.000000"
 preserveAspectRatio="xMidYMid meet">

<g transform="translate(0.000000,225.000000) scale(0.100000,-0.100000)"
fill="#000000" stroke="none">
<path d="M84 2130 c-12 -4 -31 -21 -43 -36 l-21 -27 0 -934 0 -935 34 -34 34
-34 531 0 531 0 0 155 c0 85 -2 155 -4 155 -2 0 -28 -11 -59 -25 -67 -31 -187
-55 -270 -55 -208 1 -394 105 -467 263 -90 191 -48 370 120 510 l32 27 -48 53
c-75 83 -99 144 -99 252 1 128 26 188 119 281 109 108 219 154 376 154 97 0
184 -19 249 -56 24 -13 45 -24 47 -24 2 0 4 72 6 160 l3 160 -525 -1 c-289 0
-535 -4 -546 -9z"/>
<path d="M1435 1894 c-16 -2 -66 -9 -110 -15 -44 -6 -90 -13 -102 -16 l-23 -5
0 -733 0 -733 38 -6 c89 -14 450 -18 536 -7 189 25 336 97 403 195 54 79 76
168 71 289 -3 89 -8 110 -34 167 -30 63 -75 117 -122 148 l-22 14 39 43 c53
58 79 111 93 194 28 166 -48 323 -192 396 -98 50 -189 67 -375 70 -93 2 -183
1 -200 -1z m342 -340 c15 -12 34 -38 42 -58 13 -33 12 -39 -10 -83 -31 -59
-90 -93 -161 -93 l-48 0 0 131 0 131 74 -4 c56 -2 82 -9 103 -24z m-14 -566
c93 -28 131 -146 71 -224 -31 -42 -96 -72 -171 -80 l-60 -7 -6 59 c-3 33 -3
108 0 168 l6 108 61 -6 c34 -4 78 -12 99 -18z"/>
<path d="M764 1567 c-39 -34 -46 -120 -14 -172 26 -42 73 -69 106 -61 28 7 69
67 79 113 9 43 -10 98 -42 123 -36 28 -94 26 -129 -3z"/>
<path d="M756 961 c-29 -30 -56 -105 -56 -155 1 -55 35 -115 76 -132 53 -22
100 -11 147 37 39 38 39 40 35 103 -3 51 -10 71 -32 101 -59 77 -124 94 -170
46z"/>
</g>
</svg>
